<svg width="32" height="32" viewBox="0 0 32 32" fill="none" xmlns="http://www.w3.org/2000/svg">
        <path d="M0 16C0 7.16344 7.16344 0 16 0V0C24.8366 0 32 7.16344 32 16V16C32 24.8366 24.8366 32 16 32V32C7.16344 32 0 24.8366 0 16V16Z" fill="#EDEDED" />
        <g clip-path="url(#clip0_7207_1490)">
            <circle cx="16" cy="16" r="16" fill="#EDEDED" />
            <path d="M23.0311 19.2583C22.9677 19.1819 22.9054 19.1055 22.8443 19.0318C22.004 18.0154 21.4957 17.402 21.4957 14.5248C21.4957 13.0352 21.1393 11.813 20.4369 10.8963C19.919 10.2192 19.2189 9.70545 18.2961 9.32579C18.2843 9.31919 18.2736 9.31052 18.2648 9.3002C17.9329 8.18875 17.0246 7.44434 16.0003 7.44434C14.9759 7.44434 14.068 8.18875 13.7361 9.29906C13.7272 9.309 13.7168 9.31739 13.7052 9.32388C11.5518 10.2104 10.5052 11.9112 10.5052 14.5237C10.5052 17.402 9.99762 18.0154 9.15658 19.0306C9.09547 19.1043 9.03321 19.1792 8.96981 19.2571C8.80603 19.4546 8.70226 19.6949 8.67079 19.9496C8.63931 20.2042 8.68145 20.4625 8.7922 20.694C9.02786 21.1905 9.53012 21.4987 10.1034 21.4987H21.9013C22.4719 21.4987 22.9707 21.1909 23.2072 20.6967C23.3184 20.4652 23.3609 20.2066 23.3297 19.9517C23.2985 19.6967 23.1949 19.4561 23.0311 19.2583V19.2583Z" fill="#B5B5B5" />
            <path d="M16.0002 24.555C16.5522 24.5546 17.0937 24.4047 17.5673 24.1214C18.041 23.8382 18.4292 23.4319 18.6907 22.9459C18.703 22.9226 18.7091 22.8965 18.7083 22.8702C18.7076 22.8438 18.7 22.8181 18.6864 22.7956C18.6728 22.773 18.6536 22.7543 18.6307 22.7414C18.6077 22.7284 18.5818 22.7217 18.5554 22.7217H13.4458C13.4194 22.7216 13.3935 22.7283 13.3705 22.7412C13.3474 22.7542 13.3282 22.7728 13.3145 22.7954C13.3009 22.818 13.2933 22.8437 13.2925 22.8701C13.2918 22.8964 13.2979 22.9226 13.3102 22.9459C13.5717 23.4319 13.9598 23.8381 14.4334 24.1214C14.9069 24.4046 15.4484 24.5545 16.0002 24.555Z" fill="#B5B5B5" />
        </g>
        <defs>
            <clipPath id="clip0_7207_1490">
                <rect width="19.5556" height="19.5556" fill="white" transform="translate(6.22217 6.22168)" />
            </clipPath>
        </defs>
    </svg>